<?xml version="1.0" encoding="UTF-8" standalone="no"?>
<svg
   xmlns:dc="http://purl.org/dc/elements/1.1/"
   xmlns:cc="http://creativecommons.org/ns#"
   xmlns:rdf="http://www.w3.org/1999/02/22-rdf-syntax-ns#"
   xmlns:svg="http://www.w3.org/2000/svg"
   xmlns="http://www.w3.org/2000/svg"
   id="svg8"
   version="1.1"
   viewBox="0 0 128.32291 13.229172"
   height="50.000019"
   width="485">
  <defs
     id="defs2" />
  <metadata
     id="metadata5">
    <rdf:RDF>
      <cc:Work
         rdf:about="">
        <dc:format>image/svg+xml</dc:format>
        <dc:type
           rdf:resource="http://purl.org/dc/dcmitype/StillImage" />
        <dc:title></dc:title>
      </cc:Work>
    </rdf:RDF>
  </metadata>
  <g
     transform="translate(19.955127,-283.77082)"
     id="layer1">
    <g
       id="g4158"
       transform="matrix(0.18107263,0,0,0.18107263,-23.27274,279.47704)">
      <polygon
         points="109.296,24.995 127.582,24.995 116.145,95.719 97.858,95.719 "
         id="polygon9"
         style="fill:#00579f" />
      <path
         d="m 182.437,26.724 c -3.607,-1.431 -9.328,-3.011 -16.402,-3.011 -18.059,0 -30.776,9.63 -30.854,23.398 -0.15,10.158 9.105,15.8 16.027,19.187 7.075,3.461 9.48,5.72 9.48,8.805 -0.072,4.738 -5.717,6.922 -10.982,6.922 -7.301,0 -11.213,-1.126 -17.158,-3.762 l -2.408,-1.13 -2.559,15.876 c 4.289,1.954 12.191,3.688 20.395,3.764 19.188,0 31.68,-9.481 31.828,-24.153 0.073,-8.051 -4.814,-14.22 -15.35,-19.261 -6.396,-3.236 -10.313,-5.418 -10.313,-8.729 0.075,-3.01 3.313,-6.093 10.533,-6.093 5.945,-0.151 10.313,1.278 13.622,2.708 l 1.654,0.751 z"
         id="path11"
         style="fill:#00579f" />
      <path
         d="m 206.742,70.664 c 1.506,-4.063 7.301,-19.788 7.301,-19.788 -0.076,0.151 1.503,-4.138 2.406,-6.771 l 1.278,6.094 c 0,0 3.463,16.929 4.215,20.465 -2.858,0 -11.588,0 -15.2,0 z M 229.315,24.995 H 215.17 c -4.362,0 -7.676,1.278 -9.558,5.868 l -27.163,64.855 h 19.188 c 0,0 3.159,-8.729 3.838,-10.609 2.105,0 20.771,0 23.479,0 0.525,2.483 2.182,10.609 2.182,10.609 h 16.932 z"
         id="path13"
         style="fill:#00579f" />
      <path
         d="M 82.584,24.995 64.675,73.222 62.718,63.441 C 59.407,52.155 49.023,39.893 37.435,33.796 l 16.404,61.848 h 19.338 l 28.744,-70.649 z"
         id="path15"
         style="fill:#00579f" />
      <path
         d="M 48.045,24.995 H 18.623 l -0.301,1.429 c 22.951,5.869 38.151,20.016 44.396,37.02 L 56.322,30.94 c -1.053,-4.517 -4.289,-5.796 -8.277,-5.945 z"
         id="path17"
         style="fill:#faa61a" />
    </g>
    <g
       transform="matrix(0.08504323,0,0,0.08504323,162.25776,189.64937)"
       id="g88">
      <g
         transform="matrix(3.1437,0,0,3.1437,-4835.7,-1027.6)"
         id="g86">
        <g
           transform="matrix(1.25,0,0,-1.25,1102.5,727.74)"
           id="g70">
          <path
             style="fill:#231f20"
             d="m 0,0 v -0.103 h 0.095 c 0.021,0 0.039,0.005 0.052,0.013 0.012,0.008 0.019,0.022 0.019,0.039 0,0.017 -0.007,0.03 -0.019,0.038 C 0.134,-0.004 0.116,0 0.095,0 Z M 0.096,0.072 C 0.145,0.072 0.183,0.061 0.21,0.039 0.237,0.017 0.25,-0.013 0.25,-0.051 0.25,-0.083 0.24,-0.109 0.218,-0.13 0.197,-0.15 0.167,-0.163 0.127,-0.168 L 0.253,-0.313 H 0.155 L 0.038,-0.169 H 0 V -0.313 H -0.082 V 0.072 Z M 0.071,-0.446 c 0.045,0 0.087,0.009 0.125,0.026 0.039,0.017 0.073,0.04 0.102,0.069 0.029,0.029 0.052,0.063 0.069,0.103 0.016,0.039 0.025,0.081 0.025,0.126 0,0.045 -0.009,0.087 -0.025,0.126 C 0.35,0.043 0.327,0.078 0.298,0.107 0.269,0.136 0.235,0.159 0.196,0.176 0.158,0.192 0.116,0.2 0.071,0.2 0.026,0.2 -0.017,0.192 -0.056,0.176 -0.096,0.159 -0.131,0.136 -0.16,0.107 -0.189,0.078 -0.212,0.043 -0.228,0.004 c -0.017,-0.039 -0.025,-0.081 -0.025,-0.126 0,-0.045 0.008,-0.087 0.025,-0.126 0.016,-0.04 0.039,-0.074 0.068,-0.103 0.029,-0.029 0.064,-0.052 0.104,-0.069 0.039,-0.017 0.082,-0.026 0.127,-0.026 m 0,0.739 C 0.13,0.293 0.184,0.282 0.236,0.26 0.287,0.239 0.331,0.209 0.37,0.171 0.408,0.134 0.438,0.09 0.46,0.039 0.482,-0.011 0.493,-0.065 0.493,-0.122 0.493,-0.179 0.482,-0.233 0.46,-0.283 0.438,-0.333 0.408,-0.377 0.37,-0.415 0.331,-0.452 0.287,-0.482 0.236,-0.504 0.184,-0.526 0.13,-0.537 0.071,-0.537 c -0.06,0 -0.115,0.011 -0.167,0.033 -0.052,0.022 -0.097,0.052 -0.135,0.089 -0.038,0.038 -0.068,0.082 -0.09,0.132 -0.022,0.05 -0.033,0.104 -0.033,0.161 0,0.057 0.011,0.111 0.033,0.161 0.022,0.051 0.052,0.095 0.09,0.132 0.038,0.038 0.083,0.068 0.135,0.089 0.052,0.022 0.107,0.033 0.167,0.033 M -38.89,1.776 c 0,0.734 0.481,1.337 1.267,1.337 0.751,0 1.258,-0.577 1.258,-1.337 0,-0.76 -0.507,-1.337 -1.258,-1.337 -0.786,0 -1.267,0.603 -1.267,1.337 m 3.381,0 v 2.088 h -0.908 V 3.357 c -0.288,0.376 -0.725,0.612 -1.319,0.612 -1.171,0 -2.089,-0.918 -2.089,-2.193 0,-1.276 0.918,-2.193 2.089,-2.193 0.594,0 1.031,0.236 1.319,0.612 v -0.507 h 0.908 z m 30.684,0 c 0,0.734 0.481,1.337 1.267,1.337 0.752,0 1.258,-0.577 1.258,-1.337 0,-0.76 -0.506,-1.337 -1.258,-1.337 -0.786,0 -1.267,0.603 -1.267,1.337 m 3.382,0 V 5.541 H -2.352 V 3.357 c -0.288,0.376 -0.725,0.612 -1.319,0.612 -1.171,0 -2.089,-0.918 -2.089,-2.193 0,-1.276 0.918,-2.193 2.089,-2.193 0.594,0 1.031,0.236 1.319,0.612 v -0.507 h 0.909 z m -22.795,1.38 c 0.585,0 0.961,-0.367 1.057,-1.013 h -2.167 c 0.097,0.603 0.463,1.013 1.11,1.013 m 0.018,0.813 c -1.224,0 -2.08,-0.891 -2.08,-2.193 0,-1.328 0.891,-2.193 2.141,-2.193 0.629,0 1.205,0.157 1.712,0.585 l -0.445,0.673 c -0.35,-0.279 -0.796,-0.437 -1.215,-0.437 -0.585,0 -1.118,0.271 -1.249,1.023 h 3.101 c 0.009,0.113 0.018,0.227 0.018,0.349 -0.009,1.302 -0.813,2.193 -1.983,2.193 m 10.964,-2.193 c 0,0.734 0.481,1.337 1.267,1.337 0.751,0 1.258,-0.577 1.258,-1.337 0,-0.76 -0.507,-1.337 -1.258,-1.337 -0.786,0 -1.267,0.603 -1.267,1.337 m 3.381,0 v 2.088 h -0.908 V 3.357 c -0.289,0.376 -0.725,0.612 -1.319,0.612 -1.171,0 -2.089,-0.918 -2.089,-2.193 0,-1.276 0.918,-2.193 2.089,-2.193 0.594,0 1.03,0.236 1.319,0.612 v -0.507 h 0.908 z m -8.509,0 c 0,-1.267 0.882,-2.193 2.228,-2.193 0.629,0 1.048,0.14 1.502,0.498 l -0.436,0.734 c -0.341,-0.245 -0.699,-0.376 -1.093,-0.376 -0.725,0.009 -1.258,0.533 -1.258,1.337 0,0.804 0.533,1.328 1.258,1.337 0.394,0 0.752,-0.131 1.093,-0.376 l 0.436,0.734 c -0.454,0.358 -0.873,0.498 -1.502,0.498 -1.346,0 -2.228,-0.926 -2.228,-2.193 m 11.707,2.193 c -0.524,0 -0.865,-0.245 -1.101,-0.612 v 0.507 h -0.9 v -4.176 h 0.909 v 2.341 c 0,0.691 0.297,1.075 0.891,1.075 0.184,0 0.376,-0.026 0.568,-0.105 l 0.28,0.856 C -6.231,3.934 -6.493,3.969 -6.677,3.969 M -31.018,3.532 c -0.437,0.288 -1.039,0.437 -1.703,0.437 -1.058,0 -1.739,-0.507 -1.739,-1.337 0,-0.681 0.507,-1.101 1.441,-1.232 l 0.429,-0.061 c 0.498,-0.07 0.733,-0.201 0.733,-0.437 0,-0.323 -0.332,-0.507 -0.952,-0.507 -0.629,0 -1.083,0.201 -1.389,0.437 l -0.428,-0.707 c 0.498,-0.367 1.127,-0.542 1.808,-0.542 1.206,0 1.905,0.568 1.905,1.363 0,0.734 -0.55,1.118 -1.459,1.249 L -32.8,2.257 c -0.393,0.052 -0.708,0.13 -0.708,0.41 0,0.306 0.297,0.489 0.795,0.489 0.533,0 1.049,-0.201 1.302,-0.358 z m 11.716,0.437 c -0.524,0 -0.865,-0.245 -1.1,-0.612 v 0.507 h -0.9 v -4.176 h 0.908 v 2.341 c 0,0.691 0.297,1.075 0.891,1.075 0.184,0 0.376,-0.026 0.568,-0.105 l 0.28,0.856 c -0.201,0.079 -0.463,0.114 -0.647,0.114 m -7.749,-0.105 h -1.485 v 1.267 h -0.918 V 3.864 h -0.847 v -0.83 h 0.847 V 1.129 c 0,-0.969 0.376,-1.546 1.45,-1.546 0.394,0 0.848,0.122 1.136,0.323 l -0.262,0.778 c -0.271,-0.157 -0.568,-0.236 -0.804,-0.236 -0.454,0 -0.602,0.28 -0.602,0.699 v 1.887 h 1.485 z m -13.577,-4.176 v 2.621 c 0,0.987 -0.629,1.651 -1.643,1.66 -0.533,0.009 -1.083,-0.157 -1.468,-0.743 -0.288,0.463 -0.742,0.743 -1.38,0.743 -0.446,0 -0.882,-0.131 -1.223,-0.62 v 0.515 h -0.909 v -4.176 h 0.917 v 2.315 c 0,0.725 0.402,1.11 1.023,1.11 0.603,0 0.908,-0.393 0.908,-1.101 v -2.324 h 0.918 v 2.315 c 0,0.725 0.419,1.11 1.022,1.11 0.62,0 0.917,-0.393 0.917,-1.101 v -2.324 z"
             id="path68" />
        </g>
        <g
           transform="matrix(1.25,0,0,-1.25,1103.2,710.77)"
           id="g74">
          <path
             style="fill:#f79410"
             d="M 0,0 V 0.61 H -0.159 L -0.343,0.191 -0.526,0.61 h -0.16 V 0 h 0.113 v 0.46 l 0.172,-0.397 h 0.117 l 0.172,0.398 V 0 Z m -1.009,0 v 0.506 h 0.204 v 0.103 h -0.52 V 0.506 h 0.204 V 0 Z"
             id="path72" />
        </g>
        <path
           style="fill:#ff5f00"
           d="m 1080.6,714.05 h -17.202 v -30.915 h 17.202 z"
           id="path76" />
        <g
           transform="matrix(1.25,0,0,-1.25,1064.5,698.59)"
           id="g80">
          <path
             style="fill:#eb001b"
             d="m 0,0 c 0,5.017 2.349,9.486 6.007,12.366 -2.675,2.106 -6.051,3.363 -9.72,3.363 -8.686,0 -15.727,-7.042 -15.727,-15.729 0,-8.687 7.041,-15.729 15.727,-15.729 3.669,0 7.045,1.257 9.72,3.363 C 2.349,-9.486 0,-5.017 0,0"
             id="path78" />
        </g>
        <g
           transform="matrix(1.25,0,0,-1.25,1103.8,698.59)"
           id="g84">
          <path
             style="fill:#f79e1b"
             d="m 0,0 c 0,-8.687 -7.041,-15.729 -15.727,-15.729 -3.669,0 -7.045,1.257 -9.721,3.363 3.659,2.88 6.008,7.349 6.008,12.366 0,5.017 -2.349,9.486 -6.008,12.366 2.676,2.106 6.052,3.363 9.721,3.363 C -7.041,15.729 0,8.687 0,0"
             id="path82" />
        </g>
      </g>
    </g>
    <g
       transform="matrix(0.43837121,0,0,0.43837121,54.191249,283.77082)"
       id="g153">
      <path
         style="fill:#253b80"
         d="m 46.211,6.749 h -6.839 a 0.95,0.95 0 0 0 -0.939,0.802 l -2.766,17.537 a 0.57,0.57 0 0 0 0.564,0.658 h 3.265 a 0.95,0.95 0 0 0 0.939,-0.803 l 0.746,-4.73 a 0.95,0.95 0 0 1 0.938,-0.803 h 2.165 c 4.505,0 7.105,-2.18 7.784,-6.5 C 52.374,11.02 52.081,9.535 51.196,8.495 50.224,7.353 48.5,6.749 46.211,6.749 Z M 47,13.154 c -0.374,2.454 -2.249,2.454 -4.062,2.454 h -1.032 l 0.724,-4.583 a 0.57,0.57 0 0 1 0.563,-0.481 h 0.473 c 1.235,0 2.4,0 3.002,0.704 0.359,0.42 0.469,1.044 0.332,1.906 z m 19.654,-0.079 h -3.275 a 0.57,0.57 0 0 0 -0.563,0.481 l -0.145,0.916 -0.229,-0.332 c -0.709,-1.029 -2.29,-1.373 -3.868,-1.373 -3.619,0 -6.71,2.741 -7.312,6.586 -0.313,1.918 0.132,3.752 1.22,5.031 0.998,1.176 2.426,1.666 4.125,1.666 2.916,0 4.533,-1.875 4.533,-1.875 l -0.146,0.91 a 0.57,0.57 0 0 0 0.562,0.66 h 2.95 a 0.95,0.95 0 0 0 0.939,-0.803 l 1.77,-11.209 a 0.568,0.568 0 0 0 -0.561,-0.658 z m -4.565,6.374 c -0.316,1.871 -1.801,3.127 -3.695,3.127 -0.951,0 -1.711,-0.305 -2.199,-0.883 -0.484,-0.574 -0.668,-1.391 -0.514,-2.301 0.295,-1.855 1.805,-3.152 3.67,-3.152 0.93,0 1.686,0.309 2.184,0.892 0.499,0.589 0.697,1.411 0.554,2.317 z m 22.007,-6.374 h -3.291 a 0.954,0.954 0 0 0 -0.787,0.417 l -4.539,6.686 -1.924,-6.425 a 0.953,0.953 0 0 0 -0.912,-0.678 h -3.234 a 0.57,0.57 0 0 0 -0.541,0.754 l 3.625,10.638 -3.408,4.811 a 0.57,0.57 0 0 0 0.465,0.9 h 3.287 a 0.949,0.949 0 0 0 0.781,-0.408 l 10.946,-15.8 a 0.57,0.57 0 0 0 -0.468,-0.895 z"
         id="path127" />
      <path
         style="fill:#179bd7"
         d="m 94.992,6.749 h -6.84 a 0.95,0.95 0 0 0 -0.938,0.802 l -2.766,17.537 a 0.569,0.569 0 0 0 0.562,0.658 h 3.51 a 0.665,0.665 0 0 0 0.656,-0.562 l 0.785,-4.971 a 0.95,0.95 0 0 1 0.938,-0.803 h 2.164 c 4.506,0 7.105,-2.18 7.785,-6.5 0.307,-1.89 0.012,-3.375 -0.873,-4.415 C 99.004,7.353 97.281,6.749 94.992,6.749 Z m 0.789,6.405 c -0.373,2.454 -2.248,2.454 -4.062,2.454 h -1.031 l 0.725,-4.583 a 0.568,0.568 0 0 1 0.562,-0.481 h 0.473 c 1.234,0 2.4,0 3.002,0.704 0.359,0.42 0.468,1.044 0.331,1.906 z m 19.653,-0.079 h -3.273 a 0.567,0.567 0 0 0 -0.562,0.481 l -0.145,0.916 -0.23,-0.332 c -0.709,-1.029 -2.289,-1.373 -3.867,-1.373 -3.619,0 -6.709,2.741 -7.311,6.586 -0.312,1.918 0.131,3.752 1.219,5.031 1,1.176 2.426,1.666 4.125,1.666 2.916,0 4.533,-1.875 4.533,-1.875 l -0.146,0.91 a 0.57,0.57 0 0 0 0.564,0.66 h 2.949 a 0.95,0.95 0 0 0 0.938,-0.803 l 1.771,-11.209 a 0.571,0.571 0 0 0 -0.565,-0.658 z m -4.565,6.374 c -0.314,1.871 -1.801,3.127 -3.695,3.127 -0.949,0 -1.711,-0.305 -2.199,-0.883 -0.484,-0.574 -0.666,-1.391 -0.514,-2.301 0.297,-1.855 1.805,-3.152 3.67,-3.152 0.93,0 1.686,0.309 2.184,0.892 0.501,0.589 0.699,1.411 0.554,2.317 z m 8.426,-12.219 -2.807,17.858 a 0.569,0.569 0 0 0 0.562,0.658 h 2.822 c 0.469,0 0.867,-0.34 0.939,-0.803 l 2.768,-17.536 a 0.57,0.57 0 0 0 -0.562,-0.659 h -3.16 a 0.571,0.571 0 0 0 -0.562,0.482 z"
         id="path129" />
      <path
         style="fill:#253b80"
         d="M 7.266,29.154 7.789,25.832 6.624,25.805 H 1.061 L 4.927,1.292 A 0.316,0.316 0 0 1 5.241,1.024 h 9.38 c 3.114,0 5.263,0.648 6.385,1.927 0.526,0.6 0.861,1.227 1.023,1.917 0.17,0.724 0.173,1.589 0.007,2.644 l -0.012,0.077 v 0.676 l 0.526,0.298 a 3.69,3.69 0 0 1 1.065,0.812 c 0.45,0.513 0.741,1.165 0.864,1.938 0.127,0.795 0.085,1.741 -0.123,2.812 -0.24,1.232 -0.628,2.305 -1.152,3.183 a 6.547,6.547 0 0 1 -1.825,2 c -0.696,0.494 -1.523,0.869 -2.458,1.109 -0.906,0.236 -1.939,0.355 -3.072,0.355 h -0.73 c -0.522,0 -1.029,0.188 -1.427,0.525 a 2.21,2.21 0 0 0 -0.744,1.328 l -0.055,0.299 -0.924,5.855 -0.042,0.215 c -0.011,0.068 -0.03,0.102 -0.058,0.125 a 0.155,0.155 0 0 1 -0.096,0.035 z"
         id="path131" />
      <path
         style="fill:#179bd7"
         d="m 23.048,7.667 c -0.028,0.179 -0.06,0.362 -0.096,0.55 -1.237,6.351 -5.469,8.545 -10.874,8.545 H 9.326 c -0.661,0 -1.218,0.48 -1.321,1.132 L 6.596,26.83 6.197,29.363 a 0.704,0.704 0 0 0 0.695,0.814 h 4.881 c 0.578,0 1.069,-0.42 1.16,-0.99 l 0.048,-0.248 0.919,-5.832 0.059,-0.32 c 0.09,-0.572 0.582,-0.992 1.16,-0.992 h 0.73 c 4.729,0 8.431,-1.92 9.513,-7.476 0.452,-2.321 0.218,-4.259 -0.978,-5.622 a 4.667,4.667 0 0 0 -1.336,-1.03 z"
         id="path133" />
      <path
         style="fill:#222d65"
         d="M 21.754,7.151 A 9.757,9.757 0 0 0 20.551,6.884 15.284,15.284 0 0 0 18.125,6.707 H 10.773 A 1.172,1.172 0 0 0 9.614,7.699 L 8.05,17.605 8.005,17.894 a 1.336,1.336 0 0 1 1.321,-1.132 h 2.752 c 5.405,0 9.637,-2.195 10.874,-8.545 0.037,-0.188 0.068,-0.371 0.096,-0.55 A 6.594,6.594 0 0 0 22.031,7.238 9.045,9.045 0 0 0 21.754,7.151 Z"
         id="path135" />
      <path
         style="fill:#253b80"
         d="m 9.614,7.699 a 1.169,1.169 0 0 1 1.159,-0.991 h 7.352 c 0.871,0 1.684,0.057 2.426,0.177 a 9.757,9.757 0 0 1 1.481,0.353 c 0.365,0.121 0.704,0.264 1.017,0.429 C 23.417,5.32 23.046,3.722 21.777,2.275 20.378,0.682 17.853,0 14.622,0 H 5.242 C 4.582,0 4.019,0.48 3.917,1.133 L 0.01,25.898 A 0.806,0.806 0 0 0 0.805,26.83 H 6.596 L 8.05,17.605 Z"
         id="path137" />
    </g>
  </g>
</svg>
