<?xml version="1.0" encoding="UTF-8" standalone="no"?>
<svg
   xmlns:dc="http://purl.org/dc/elements/1.1/"
   xmlns:cc="http://creativecommons.org/ns#"
   xmlns:rdf="http://www.w3.org/1999/02/22-rdf-syntax-ns#"
   xmlns:svg="http://www.w3.org/2000/svg"
   xmlns="http://www.w3.org/2000/svg"
   id="svg8"
   version="1.1"
   viewBox="0 0 300 50"
   height="50mm"
   width="300mm">
  <defs
     id="defs2">
	

		
	
			
			
		</defs>
  <metadata
     id="metadata5">
    <rdf:RDF>
      <cc:Work
         rdf:about="">
        <dc:format>image/svg+xml</dc:format>
        <dc:type
           rdf:resource="http://purl.org/dc/dcmitype/StillImage" />
        <dc:title></dc:title>
      </cc:Work>
    </rdf:RDF>
  </metadata>
  <g
     transform="translate(0,-247)"
     id="layer1">
    <g
       transform="matrix(0.6779841,0,0,0.6779841,0,96.06313)"
       id="g1001">
      <path
         id="path862"
         d="m 40.64236,222 -7.69097,23.6285 c -0.27778,0.8159 -1.00695,1.3541 -1.82292,1.3541 H 0 l 25.19097,18.2986 c 0.67708,0.4688 0.9375,1.3542 0.67708,2.1528 L 16.26736,297 l 24.375,-17.691 z"
         style="fill:#d21034;fill-opacity:1;stroke-width:0.1736111" />
      <path
         id="path864"
         d="M 52.11805,245.6285 44.42708,222 v 57.2569 l 24.375,17.691 -9.58333,-29.566 c -0.27778,-0.8159 0,-1.684 0.67708,-2.1527 L 85.0868,247 H 53.94097 c -0.79861,-0.017 -1.54514,-0.5556 -1.82292,-1.3715 z"
         style="fill:#005293;fill-opacity:1;stroke-width:0.1736111" />
    </g>
    <g
       transform="matrix(0.1736111,0,0,0.1736111,0,216.9566)"
       id="g872">
</g>
    <g
       transform="matrix(0.1736111,0,0,0.1736111,0,216.9566)"
       id="g874">
</g>
    <g
       transform="matrix(0.1736111,0,0,0.1736111,0,216.9566)"
       id="g876">
</g>
    <g
       transform="matrix(0.1736111,0,0,0.1736111,0,216.9566)"
       id="g878">
</g>
    <g
       transform="matrix(0.1736111,0,0,0.1736111,0,216.9566)"
       id="g880">
</g>
    <g
       transform="matrix(0.1736111,0,0,0.1736111,0,216.9566)"
       id="g882">
</g>
    <g
       transform="matrix(0.1736111,0,0,0.1736111,0,216.9566)"
       id="g884">
</g>
    <g
       transform="matrix(0.1736111,0,0,0.1736111,0,216.9566)"
       id="g886">
</g>
    <g
       transform="matrix(0.1736111,0,0,0.1736111,0,216.9566)"
       id="g888">
</g>
    <g
       transform="matrix(0.1736111,0,0,0.1736111,0,216.9566)"
       id="g890">
</g>
    <g
       transform="matrix(0.1736111,0,0,0.1736111,0,216.9566)"
       id="g892">
</g>
    <g
       transform="matrix(0.1736111,0,0,0.1736111,0,216.9566)"
       id="g894">
</g>
    <g
       transform="matrix(0.1736111,0,0,0.1736111,0,216.9566)"
       id="g896">
</g>
    <g
       transform="matrix(0.1736111,0,0,0.1736111,0,216.9566)"
       id="g898">
</g>
    <g
       transform="matrix(0.1736111,0,0,0.1736111,0,216.9566)"
       id="g900">
</g>
    <g
       transform="matrix(1.140338,0,0,1.140338,-38.48163,-21.85903)"
       id="text962"
       style="font-style:normal;font-weight:normal;font-size:21.4398003px;line-height:1.25;font-family:sans-serif;letter-spacing:0px;word-spacing:0px;fill:#333333;fill-opacity:1;stroke:none;stroke-width:0.5024953"
       aria-label="PANAMA CANAL TOURS">
      <path
         id="path966"
         style="font-style:normal;font-variant:normal;font-weight:normal;font-stretch:normal;font-family:Impact;-inkscape-font-specification:Impact;letter-spacing:1.2562383px;fill:#333333;stroke-width:0.5024953"
         d="m 90.05933,249.9706 h 4.43871 q 1.80061,0 2.76372,0.2826 0.97359,0.2827 1.45514,0.8166 0.49203,0.5339 0.65953,1.2981 0.17797,0.7537 0.17797,2.345 v 1.476 q 0,1.6227 -0.335,2.366 -0.335,0.7432 -1.2353,1.141 -0.88984,0.3979 -2.33451,0.3979 h -1.18296 v 6.8255 h -4.4073 z m 4.4073,2.8998 v 4.3131 q 0.18844,0.01 0.32453,0.01 0.60718,0 0.83749,-0.2931 0.24078,-0.3036 0.24078,-1.2458 v -1.3923 q 0,-0.8689 -0.27218,-1.1306 -0.27219,-0.2617 -1.13062,-0.2617 z" />
      <path
         id="path968"
         style="font-style:normal;font-variant:normal;font-weight:normal;font-stretch:normal;font-family:Impact;-inkscape-font-specification:Impact;letter-spacing:1.2562383px;fill:#333333;stroke-width:0.5024953"
         d="m 109.1437,249.9706 2.5229,16.9487 h -4.512 l -0.2198,-3.0464 h -1.5808 l -0.2617,3.0464 h -4.5643 l 2.2403,-16.9487 z m -2.3345,10.8978 q -0.335,-2.8788 -0.67,-7.1082 -0.67,4.8575 -0.8375,7.1082 z" />
      <path
         id="path970"
         style="font-style:normal;font-variant:normal;font-weight:normal;font-stretch:normal;font-family:Impact;-inkscape-font-specification:Impact;letter-spacing:1.2562383px;fill:#333333;stroke-width:0.5024953"
         d="m 123.5171,249.9706 v 16.9487 h -3.8629 l -2.2926,-7.7049 v 7.7049 h -3.685 v -16.9487 h 3.685 l 2.4706,7.6316 v -7.6316 z" />
      <path
         id="path972"
         style="font-style:normal;font-variant:normal;font-weight:normal;font-stretch:normal;font-family:Impact;-inkscape-font-specification:Impact;letter-spacing:1.2562383px;fill:#333333;stroke-width:0.5024953"
         d="m 134.1428,249.9706 2.523,16.9487 h -4.512 l -0.2199,-3.0464 h -1.5807 l -0.2617,3.0464 h -4.5644 l 2.2403,-16.9487 z m -2.3345,10.8978 q -0.335,-2.8788 -0.67,-7.1082 -0.67,4.8575 -0.8375,7.1082 z" />
      <path
         id="path974"
         style="font-style:normal;font-variant:normal;font-weight:normal;font-stretch:normal;font-family:Impact;-inkscape-font-specification:Impact;letter-spacing:1.2562383px;fill:#333333;stroke-width:0.5024953"
         d="m 152.2745,249.9706 v 16.9487 h -3.8524 v -11.4422 l -1.5389,11.4422 h -2.7323 l -1.6227,-11.1805 v 11.1805 h -3.8525 v -16.9487 h 5.7055 q 0.2512,1.5284 0.5339,3.6012 l 0.6071,4.3131 1.005,-7.9143 z" />
      <path
         id="path976"
         style="font-style:normal;font-variant:normal;font-weight:normal;font-stretch:normal;font-family:Impact;-inkscape-font-specification:Impact;letter-spacing:1.2562383px;fill:#333333;stroke-width:0.5024953"
         d="m 162.9107,249.9706 2.5229,16.9487 h -4.512 l -0.2198,-3.0464 h -1.5808 l -0.2617,3.0464 h -4.5643 l 2.2403,-16.9487 z m -2.3345,10.8978 q -0.335,-2.8788 -0.67,-7.1082 -0.67,4.8575 -0.8375,7.1082 z" />
      <path
         id="path978"
         style="font-style:normal;font-variant:normal;font-weight:normal;font-stretch:normal;font-family:Impact;-inkscape-font-specification:Impact;letter-spacing:1.2562383px;fill:#333333;stroke-width:0.5024953"
         d="m 182.7592,257.3614 h -4.4073 v -2.9521 q 0,-1.2877 -0.1465,-1.6017 -0.1361,-0.3246 -0.6177,-0.3246 -0.5443,0 -0.6909,0.3874 -0.1466,0.3873 -0.1466,1.675 v 7.8724 q 0,1.2353 0.1466,1.6122 0.1466,0.3768 0.6595,0.3768 0.4921,0 0.6386,-0.3768 0.157,-0.3769 0.157,-1.7692 v -2.1252 h 4.4073 v 0.6595 q 0,2.6277 -0.3768,3.7269 -0.3664,1.0992 -1.6436,1.9262 -1.2667,0.827 -3.1301,0.827 -1.9367,0 -3.193,-0.7014 -1.2562,-0.7014 -1.6645,-1.9367 -0.4083,-1.2457 -0.4083,-3.7373 v -4.9516 q 0,-1.8321 0.1257,-2.7428 0.1256,-0.9213 0.7432,-1.7692 0.6282,-0.848 1.7274,-1.3295 1.1096,-0.4921 2.5438,-0.4921 1.9472,0 3.2139,0.7538 1.2667,0.7537 1.6645,1.8843 0.3978,1.1202 0.3978,3.4966 z" />
      <path
         id="path980"
         style="font-style:normal;font-variant:normal;font-weight:normal;font-stretch:normal;font-family:Impact;-inkscape-font-specification:Impact;letter-spacing:1.2562383px;fill:#333333;stroke-width:0.5024953"
         d="m 193.2279,249.9706 2.5229,16.9487 h -4.5119 l -0.2199,-3.0464 h -1.5808 l -0.2617,3.0464 h -4.5643 l 2.2403,-16.9487 z m -2.3345,10.8978 q -0.335,-2.8788 -0.67,-7.1082 -0.67,4.8575 -0.8375,7.1082 z" />
      <path
         id="path982"
         style="font-style:normal;font-variant:normal;font-weight:normal;font-stretch:normal;font-family:Impact;-inkscape-font-specification:Impact;letter-spacing:1.2562383px;fill:#333333;stroke-width:0.5024953"
         d="m 207.6014,249.9706 v 16.9487 h -3.863 l -2.2926,-7.7049 v 7.7049 h -3.685 v -16.9487 h 3.685 l 2.4706,7.6316 v -7.6316 z" />
      <path
         id="path984"
         style="font-style:normal;font-variant:normal;font-weight:normal;font-stretch:normal;font-family:Impact;-inkscape-font-specification:Impact;letter-spacing:1.2562383px;fill:#333333;stroke-width:0.5024953"
         d="m 218.227,249.9706 2.523,16.9487 h -4.512 l -0.2198,-3.0464 h -1.5808 l -0.2617,3.0464 h -4.5644 l 2.2403,-16.9487 z m -2.3345,10.8978 q -0.335,-2.8788 -0.67,-7.1082 -0.67,4.8575 -0.8375,7.1082 z" />
      <path
         id="path986"
         style="font-style:normal;font-variant:normal;font-weight:normal;font-stretch:normal;font-family:Impact;-inkscape-font-specification:Impact;letter-spacing:1.2562383px;fill:#333333;stroke-width:0.5024953"
         d="m 227.1673,249.9706 v 13.5569 h 2.6799 v 3.3918 H 222.76 v -16.9487 z" />
      <path
         id="path988"
         style="font-style:normal;font-variant:normal;font-weight:normal;font-stretch:normal;font-family:Impact;-inkscape-font-specification:Impact;letter-spacing:1.2562383px;fill:#333333;stroke-width:0.5024953"
         d="m 246.0841,249.9706 v 3.3918 h -2.6171 v 13.5569 h -4.4073 v -13.5569 h -2.6067 v -3.3918 z" />
      <path
         id="path990"
         style="font-style:normal;font-variant:normal;font-weight:normal;font-stretch:normal;font-family:Impact;-inkscape-font-specification:Impact;letter-spacing:1.2562383px;fill:#333333;stroke-width:0.5024953"
         d="m 258.4162,259.8948 q 0,2.5544 -0.1256,3.6222 -0.1152,1.0573 -0.7538,1.9367 -0.6281,0.8794 -1.7064,1.3505 -1.0782,0.471 -2.5124,0.471 -1.361,0 -2.4497,-0.4396 -1.0783,-0.4502 -1.7378,-1.34 -0.6595,-0.8899 -0.7851,-1.9367 -0.1257,-1.0469 -0.1257,-3.6641 v -2.8998 q 0,-2.5543 0.1152,-3.6117 0.1256,-1.0678 0.7537,-1.9471 0.6386,-0.8794 1.7169,-1.3505 1.0783,-0.4711 2.5125,-0.4711 1.3609,0 2.4392,0.4502 1.0887,0.4397 1.7482,1.3295 0.6596,0.8898 0.7852,1.9367 0.1256,1.0469 0.1256,3.664 z m -4.4073,-5.5693 q 0,-1.1829 -0.1361,-1.5075 -0.1256,-0.335 -0.5339,-0.335 -0.3455,0 -0.5339,0.2722 -0.178,0.2617 -0.178,1.5703 v 7.9143 q 0,1.4761 0.1152,1.8216 0.1256,0.3454 0.5653,0.3454 0.4501,0 0.5758,-0.3978 0.1256,-0.3978 0.1256,-1.8948 z" />
      <path
         id="path992"
         style="font-style:normal;font-variant:normal;font-weight:normal;font-stretch:normal;font-family:Impact;-inkscape-font-specification:Impact;letter-spacing:1.2562383px;fill:#333333;stroke-width:0.5024953"
         d="m 271.345,249.9706 v 11.327 q 0,1.9263 -0.1256,2.7114 -0.1257,0.7747 -0.7433,1.6017 -0.6177,0.8166 -1.6331,1.2458 -1.005,0.4187 -2.3764,0.4187 -1.518,0 -2.68,-0.5024 -1.162,-0.5025 -1.7378,-1.3086 -0.5758,-0.8061 -0.6804,-1.696 -0.1047,-0.9003 -0.1047,-3.7687 v -10.0289 h 4.4073 v 12.7089 q 0,1.1097 0.1151,1.4237 0.1256,0.3036 0.4921,0.3036 0.4187,0 0.5339,-0.335 0.1256,-0.3454 0.1256,-1.6121 v -12.4891 z" />
      <path
         id="path994"
         style="font-style:normal;font-variant:normal;font-weight:normal;font-stretch:normal;font-family:Impact;-inkscape-font-specification:Impact;letter-spacing:1.2562383px;fill:#333333;stroke-width:0.5024953"
         d="m 274.3076,249.9706 h 3.1197 q 3.1196,0 4.2188,0.2407 1.1097,0.2408 1.8007,1.2353 0.7014,0.9841 0.7014,3.1511 0,1.9786 -0.4921,2.659 -0.492,0.6805 -1.9367,0.8166 1.3086,0.3245 1.7588,0.8689 0.4501,0.5444 0.5548,1.005 0.1152,0.4501 0.1152,2.502 v 4.4701 h -4.0933 v -5.6321 q 0,-1.3609 -0.2198,-1.6855 -0.2094,-0.3245 -1.1202,-0.3245 v 7.6421 h -4.4073 z m 4.4073,2.8998 v 3.7687 q 0.7433,0 1.0364,-0.1989 0.3036,-0.2094 0.3036,-1.3295 v -0.9317 q 0,-0.8061 -0.2931,-1.0574 -0.2827,-0.2512 -1.0469,-0.2512 z" />
      <path
         id="path996"
         style="font-style:normal;font-variant:normal;font-weight:normal;font-stretch:normal;font-family:Impact;-inkscape-font-specification:Impact;letter-spacing:1.2562383px;fill:#333333;stroke-width:0.5024953"
         d="m 296.4593,255.1002 h -4.0933 v -1.2562 q 0,-0.8794 -0.157,-1.1202 -0.157,-0.2408 -0.5234,-0.2408 -0.3978,0 -0.6072,0.3246 -0.1989,0.3245 -0.1989,0.984 0,0.848 0.2303,1.2772 0.2198,0.4292 1.2458,1.0364 2.9417,1.7483 3.7059,2.8684 0.7642,1.1202 0.7642,3.6117 0,1.8111 -0.4292,2.6695 -0.4188,0.8584 -1.6331,1.4447 -1.2144,0.5757 -2.8266,0.5757 -1.7692,0 -3.0254,-0.6699 -1.2458,-0.67 -1.6331,-1.7064 -0.3874,-1.0364 -0.3874,-2.9417 v -1.1097 h 4.0933 v 2.0623 q 0,0.9527 0.1675,1.2248 0.1779,0.2722 0.6176,0.2722 0.4397,0 0.6491,-0.3454 0.2198,-0.3455 0.2198,-1.026 0,-1.497 -0.4082,-1.9576 -0.4188,-0.4606 -2.0624,-1.5389 -1.6436,-1.0887 -2.1775,-1.5808 -0.5339,-0.492 -0.8898,-1.3609 -0.3455,-0.8689 -0.3455,-2.2193 0,-1.9472 0.4921,-2.8475 0.5025,-0.9003 1.6121,-1.4028 1.1097,-0.513 2.68,-0.513 1.7169,0 2.9208,0.5549 1.2143,0.5548 1.6017,1.4028 0.3978,0.8375 0.3978,2.8579 z" />
    </g>
    <path
       id="rect1119"
       d="M 64.216,284.1068 H 300 v 2.0765 H 64.216 Z"
       style="opacity:0.98;vector-effect:none;fill:#005293;fill-opacity:1;stroke:none;stroke-width:6.7861724;stroke-linecap:butt;stroke-linejoin:miter;stroke-miterlimit:4;stroke-dasharray:none;stroke-dashoffset:0;stroke-opacity:1" />
  </g>
</svg>
